<svg xmlns="http://www.w3.org/2000/svg" width="44.141" height="48" viewBox="0 0 44.141 48">
  <defs>
    <style>
      .cls-1 {
        fill: #fd830d;
      }
    </style>
  </defs>
  <g id="moon_icon" data-name="moon icon" transform="translate(-43.182 -29.471)">
    <path id="Tracé_7" data-name="Tracé 7" class="cls-1" d="M80.469,64.4A15.768,15.768,0,0,1,62.33,38.609a1.208,1.208,0,0,0-.838-2.178,20.608,20.608,0,1,0,20.744,29.49A1.208,1.208,0,0,0,80.469,64.4Zm-3.5-30.756a.928.928,0,0,1-.929.928H73.726V36.88a.929.929,0,1,1-1.858,0V34.569H69.556a.929.929,0,0,1,0-1.858h2.312V30.4a.929.929,0,0,1,1.858,0v2.311h2.311A.929.929,0,0,1,76.966,33.64Z"/>
    <path id="Tracé_8" data-name="Tracé 8" class="cls-1" d="M208.636,112.167a.928.928,0,0,1-.929.928H205.4v2.312a.929.929,0,0,1-1.858,0V113.1h-2.312a.929.929,0,0,1,0-1.857h2.312v-2.311a.929.929,0,0,1,1.858,0v2.311h2.311a.93.93,0,0,1,.929.929ZM222.327,108a.93.93,0,0,1-.929.929h-2.312v2.312a.929.929,0,0,1-1.858,0v-2.312h-2.311a.929.929,0,1,1,0-1.858h2.311v-2.311a.929.929,0,0,1,1.858,0v2.311H221.4a.929.929,0,0,1,.929.929Z" transform="translate(-135.004 -63.893)"/>
  </g>
</svg>
